<svg version="1.1" id="green-logo-transparent" xmlns="http://www.w3.org/2000/svg" width="1254" height="1254" viewBox="0 0 1254 1254" xml:space="preserve">
  <title>Green logo on transparent canvas</title>
  <g id="logo-shapes">
    <path fill="#06F312" opacity="1" stroke="none"
      d="
M776.847412,614.969543
	C776.929688,589.481384 777.016418,563.993225 777.089783,538.505066
	C777.102783,534.006226 776.952087,529.504578 777.062622,525.008789
	C777.412415,510.783722 791.469666,506.402679 800.678345,511.868988
	C827.463379,527.768616 853.946777,544.176514 880.544067,560.392334
	C904.148132,574.783325 927.643677,589.356628 951.403931,603.484802
	C959.479309,608.286560 962.896667,615.203430 962.906860,623.971863
	C962.998474,703.119812 962.958557,782.267883 962.959717,861.415955
	C962.959839,866.747986 963.002136,872.080078 962.986633,877.412048
	C962.963501,885.348145 959.759583,891.380249 952.829224,895.620239
	C924.409424,913.007385 896.095398,930.567444 867.680542,947.962769
	C864.892273,949.669861 861.796143,951.342529 858.643250,951.898621
	C848.689026,953.654053 841.142822,946.438232 841.132629,935.506958
	C841.101501,902.181519 841.056946,868.855835 841.157104,835.530640
	C841.203003,820.269836 835.155029,809.077759 821.826233,800.876404
	C761.536316,763.779541 701.555359,726.180908 641.384949,688.889038
	C585.762451,654.415771 530.045471,620.094971 474.356750,585.728516
	C466.851990,581.097229 459.269592,576.591858 451.282867,571.700317
	C450.530548,571.519165 450.218506,571.665894 449.906464,571.812561
	C449.906464,571.812561 449.941162,571.900208 449.714844,572.257385
	C449.564850,575.101990 449.641144,577.589478 449.717438,580.076904
	C449.756866,598.235046 449.576599,616.397217 449.916962,634.549744
	C450.125977,645.697205 437.777771,652.190857 428.484070,646.497314
	C391.292542,623.712524 353.956909,601.163208 316.751038,578.401794
	C310.166290,574.373474 307.501556,568.135193 307.528625,560.339722
	C307.656525,523.520325 307.577057,486.700287 307.566528,449.880463
	C307.560547,428.888214 307.627411,407.895477 307.495697,386.903992
	C307.438202,377.743774 310.694397,370.753357 319.153442,366.544006
	C321.531342,365.360718 323.767456,363.875854 326.006348,362.432739
	C336.580688,355.616974 347.017212,356.039734 357.664062,362.486206
	C418.901154,399.564087 480.211639,436.520630 541.452637,473.592010
	C579.923096,496.879578 618.305725,520.312073 656.745300,543.650635
	C695.886353,567.415161 735.048950,591.144348 774.698486,615.234680
	C775.745789,615.376709 776.296570,615.173096 776.847412,614.969543
z"/>
    <path fill="#06F212" opacity="1" stroke="none"
      d="
M962.933594,481.000000
	C962.944702,488.332336 962.803528,495.169250 963.009644,501.995667
	C963.201660,508.354523 961.232544,513.625366 955.606995,516.792725
	C949.826904,520.047119 944.313599,519.498962 938.380920,515.862000
	C886.838928,484.264587 835.105225,452.980164 783.507568,421.473267
	C736.028992,392.481567 688.630554,363.358368 641.251343,334.204407
	C636.530701,331.299591 631.702759,330.991760 627.046875,333.233856
	C621.934570,335.695740 619.981812,340.553467 619.980713,346.093903
	C619.976135,369.590729 619.951721,393.088043 620.114014,416.583954
	C620.146179,421.240326 619.499573,425.365265 615.030945,427.624146
	C610.667725,429.829742 606.557739,429.005676 602.299255,426.464447
	C542.946350,391.045837 483.531982,355.730164 424.108276,320.430389
	C413.336090,314.031311 413.119385,297.632751 423.655273,291.203705
	C463.037048,267.172791 502.368103,243.058640 541.695068,218.937988
	C566.540527,203.699356 591.320801,188.354416 616.182861,173.142960
	C623.366150,168.747971 630.803711,168.923935 637.955322,173.216614
	C691.927124,205.612671 745.836121,238.113297 799.815491,270.496826
	C850.385681,300.835114 900.994629,331.108887 951.647949,361.308136
	C959.264709,365.849152 962.908386,372.239136 962.901184,381.014038
	C962.874023,414.175995 962.916504,447.338013 962.933594,481.000000
z"/>
    <path fill="#06F312" opacity="1" stroke="none"
      d="
M517.891479,779.135925
	C545.206482,795.479675 572.121033,811.786438 599.258179,827.713989
	C608.493774,833.134583 620.255493,826.676270 620.149048,816.124329
	C620.026306,803.962524 620.202942,791.796936 620.002075,779.637024
	C619.922791,774.836304 620.578674,770.571716 625.117981,768.043457
	C629.604492,765.544495 634.035706,767.303345 637.803650,769.516785
	C653.022766,778.457153 668.060303,787.708130 683.122192,796.914307
	C713.523376,815.496033 743.913757,834.095520 774.269531,852.751343
	C781.896240,857.438538 786.137207,864.235168 786.004822,873.380920
	C785.897400,880.800293 787.418213,888.593018 782.500000,895.123413
	C780.150757,898.242737 777.482117,901.493835 774.228333,903.503723
	C727.180908,932.565308 679.938721,961.311829 632.929382,990.434387
	C623.887695,996.035645 615.630615,996.041809 606.799866,990.661377
	C573.518127,970.383728 540.197571,950.169983 506.875336,929.958923
	C459.181732,901.031128 411.474396,872.126038 363.772156,843.212524
	C348.110321,833.719543 332.362091,824.365234 316.823761,814.674255
	C310.522247,810.744263 307.507233,804.703796 307.538879,797.087280
	C307.630951,774.927979 307.559570,752.768005 307.558380,730.608337
	C307.557465,713.613892 307.481232,696.618896 307.597229,679.625183
	C307.686096,666.604919 320.109100,659.607605 331.136627,666.267639
	C387.308472,700.193054 443.471710,734.132751 499.636230,768.070190
	C505.622620,771.687561 511.597809,775.323303 517.891479,779.135925
z"/>
    <path fill="#02A515" opacity="1" stroke="none"
      d="
M449.836700,579.637878
	C449.641144,577.589478 449.564850,575.101990 449.678375,572.287231
	C449.897430,574.372864 449.926697,576.785889 449.836700,579.637878
z"/>
    <path fill="#002103" opacity="1" stroke="none"
      d="
M776.516846,614.966553
	C776.296570,615.173096 775.745789,615.376709 775.031738,615.325684
	C775.307800,615.035217 775.747009,614.999390 776.516846,614.966553
z"/>
    <path fill="#02A515" opacity="1" stroke="none"
      d="
M450.195404,571.772705
	C450.218506,571.665894 450.530548,571.519165 450.955078,571.559937
	C450.873169,571.742554 450.678772,571.737671 450.195404,571.772705
z"/>
  </g>
</svg>
