<svg version="1.1" id="Layer_1" xmlns="http://www.w3.org/2000/svg" xmlns:xlink="http://www.w3.org/1999/xlink" x="0px" y="0px" width="100%" viewBox="0 0 1024 816" enable-background="new 0 0 1024 816" xml:space="preserve">
<path fill="#000000" opacity="1.000000" stroke="none" d="&#xA;M656.991028,357.011292 &#xA;&#x9;C669.130310,347.523468 675.957581,346.634796 693.936584,352.493042 &#xA;&#x9;C689.686462,343.119751 689.439026,333.942230 693.801697,323.905823 &#xA;&#x9;C686.132202,327.955475 678.831970,329.536957 671.121765,327.606079 &#xA;&#x9;C663.316406,325.651367 657.310181,321.259308 653.237610,314.229675 &#xA;&#x9;C647.091675,303.621002 648.798035,288.979858 657.270935,280.412354 &#xA;&#x9;C666.417053,271.164124 681.273499,269.368744 692.745544,276.125305 &#xA;&#x9;C704.669373,283.147980 708.723328,296.254150 703.975952,312.432678 &#xA;&#x9;C727.979187,298.929565 756.237244,317.689453 749.662842,348.481781 &#xA;&#x9;C762.035522,343.502625 773.752625,343.903870 784.072876,352.421204 &#xA;&#x9;C794.496948,361.024261 797.127563,372.417816 794.121521,386.378143 &#xA;&#x9;C810.388062,381.059296 824.655762,382.887512 835.349915,396.598206 &#xA;&#x9;C840.869141,403.674133 843.351257,411.928406 841.796570,421.018829 &#xA;&#x9;C838.116943,442.534515 820.687561,451.692963 794.380981,445.988739 &#xA;&#x9;C802.259888,475.769226 774.500610,496.448975 749.466614,484.762848 &#xA;&#x9;C752.863464,498.030670 750.708252,509.809052 740.043701,518.432800 &#xA;&#x9;C729.379150,527.056580 717.467529,527.232239 704.473083,520.597900 &#xA;&#x9;C707.448792,528.495300 707.825317,535.825623 704.932190,542.935791 &#xA;&#x9;C701.982971,550.183594 696.759705,555.425781 689.468506,558.438232 &#xA;&#x9;C677.050415,563.569031 663.882629,559.859131 655.102661,548.815308 &#xA;&#x9;C647.962585,539.834290 648.061646,525.854126 655.337769,515.633362 &#xA;&#x9;C663.138184,504.676178 675.879517,501.777527 692.588013,507.428345 &#xA;&#x9;C691.655701,502.951813 690.448364,498.767151 690.550537,494.330292 &#xA;&#x9;C690.652710,489.890717 692.084717,485.853973 693.467163,481.025208 &#xA;&#x9;C681.892151,485.703735 670.883484,486.259460 659.661804,478.195068 &#xA;&#x9;C663.305176,485.828796 664.728699,492.893219 662.767822,500.161041 &#xA;&#x9;C660.822327,507.372009 656.483154,512.968506 649.987976,516.764526 &#xA;&#x9;C638.880127,523.256409 625.489258,521.280701 616.096802,511.812439 &#xA;&#x9;C607.934814,503.584564 606.069092,489.939392 611.727051,479.853241 &#xA;&#x9;C619.024353,466.844696 630.005493,463.820892 651.864136,469.293823 &#xA;&#x9;C647.192932,458.473572 647.828491,448.290649 654.161011,438.100769 &#xA;&#x9;C655.736389,436.373779 656.884766,435.139435 658.309082,433.721649 &#xA;&#x9;C669.141846,424.873444 680.613525,424.690155 693.581787,430.280975 &#xA;&#x9;C688.549438,420.958527 689.237427,411.993958 693.131104,402.506500 &#xA;&#x9;C686.441833,405.676117 680.350403,406.786865 673.857544,406.046265 &#xA;&#x9;C666.869934,405.249207 661.612366,401.256134 656.179993,397.082275 &#xA;&#x9;C656.043091,396.939972 655.775391,396.649597 655.775391,396.649597 &#xA;&#x9;C647.140137,385.074432 646.463196,373.070251 654.163208,360.084839 &#xA;&#x9;C655.325562,358.695404 656.158325,357.853363 656.991028,357.011292 &#xA;M712.517334,366.528198 &#xA;&#x9;C709.982361,365.648987 707.447327,364.769806 704.012817,363.578613 &#xA;&#x9;C708.047119,372.486145 708.249084,380.719452 704.588074,390.345856 &#xA;&#x9;C715.600708,385.022064 725.076782,384.747162 735.632812,389.903229 &#xA;&#x9;C731.817566,381.085327 732.132629,373.155304 734.732910,364.421722 &#xA;&#x9;C727.146790,367.432343 720.317871,368.169067 712.517334,366.528198 &#xA;M723.162781,446.897888 &#xA;&#x9;C716.881592,447.365936 711.075378,445.625488 704.651184,442.411621 &#xA;&#x9;C708.244751,451.670441 708.257507,460.216614 704.223328,469.873322 &#xA;&#x9;C714.638489,464.036499 724.375244,463.753418 735.419983,468.552429 &#xA;&#x9;C731.771423,459.999359 732.171875,452.567444 735.183167,444.495819 &#xA;&#x9;C730.709717,445.413116 727.363953,446.099182 723.162781,446.897888 &#xA;M753.729065,405.346802 &#xA;&#x9;C752.314148,405.406006 751.145264,403.713867 749.327637,404.843109 &#xA;&#x9;C752.168945,412.455872 751.834290,420.241425 749.527100,428.869720 &#xA;&#x9;C759.294434,424.524628 768.369385,424.959412 778.239563,428.118286 &#xA;&#x9;C775.357300,419.918793 775.923706,412.607574 777.992737,404.489655 &#xA;&#x9;C769.478210,407.125641 761.993042,408.334045 753.729065,405.346802 &#xA;z"></path>
<path fill="#000000" opacity="1.000000" stroke="none" d="&#xA;M658.033142,433.905060 &#xA;&#x9;C656.884766,435.139435 655.736389,436.373779 654.327148,437.781189 &#xA;&#x9;C646.930725,442.084167 639.702271,445.447266 630.999878,443.610291 &#xA;&#x9;C618.659241,441.005341 610.264526,432.464996 608.074463,419.743835 &#xA;&#x9;C606.330444,409.613312 612.065857,397.967285 621.592346,392.295074 &#xA;&#x9;C631.527710,386.379333 644.449280,387.451965 653.792358,394.971710 &#xA;&#x9;C654.309570,395.388000 654.806519,395.829437 655.544128,396.454376 &#xA;&#x9;C655.775391,396.649597 656.043091,396.939972 656.366943,397.322754 &#xA;&#x9;C660.068665,401.303101 662.147339,405.528687 663.305786,410.339203 &#xA;&#x9;C665.417725,419.109436 662.639893,426.688751 658.033142,433.905060 &#xA;z"></path>
<path fill="#000000" opacity="1.000000" stroke="none" d="&#xA;M657.111084,356.684753 &#xA;&#x9;C656.158325,357.853363 655.325562,358.695404 654.279907,359.739960 &#xA;&#x9;C639.867249,368.901093 626.823181,368.389771 616.673096,358.476746 &#xA;&#x9;C606.206238,348.254395 605.725647,330.943726 615.622192,320.628418 &#xA;&#x9;C626.420532,309.373169 643.725159,308.731628 654.722961,319.178864 &#xA;&#x9;C665.131836,329.066681 666.078491,343.099091 657.111084,356.684753 &#xA;z"></path>
<path fill="#000000" opacity="1.000000" stroke="none" d="&#xA;M612.587036,276.216370 &#xA;&#x9;C606.818176,265.679932 607.236206,255.633942 614.295105,246.441910 &#xA;&#x9;C620.742554,238.046051 629.639771,234.082565 640.225708,236.151779 &#xA;&#x9;C651.507568,238.357025 658.797241,245.466431 661.642761,256.659271 &#xA;&#x9;C664.456726,267.728424 658.472961,280.555969 648.364014,285.852051 &#xA;&#x9;C637.173096,291.714966 623.415283,289.183960 615.179443,279.718842 &#xA;&#x9;C614.309265,278.718750 613.580627,277.595520 612.587036,276.216370 &#xA;z"></path>
<path fill="#000000" opacity="1.000000" stroke="none" d="&#xA;M607.184021,477.419617 &#xA;&#x9;C591.357239,484.763672 575.399414,478.696869 569.410645,463.367310 &#xA;&#x9;C564.113037,449.807281 571.877380,434.067810 586.180908,429.371216 &#xA;&#x9;C598.317505,425.386139 612.236511,431.174042 617.878235,442.551880 &#xA;&#x9;C624.190125,455.281250 620.253845,468.448730 607.184021,477.419617 &#xA;z"></path>
<path fill="#000000" opacity="1.000000" stroke="none" d="&#xA;M626.606201,593.790894 &#xA;&#x9;C616.144592,588.720825 609.974731,580.953491 609.854919,569.482056 &#xA;&#x9;C609.745056,558.967163 614.637939,550.942505 623.937073,545.970642 &#xA;&#x9;C634.250427,540.456604 646.936584,542.680481 655.076111,551.100037 &#xA;&#x9;C663.163391,559.465576 664.844238,572.128052 659.167847,581.925049 &#xA;&#x9;C653.110046,592.380310 641.340393,597.562439 629.831482,594.824280 &#xA;&#x9;C628.863770,594.594055 627.923462,594.248718 626.606201,593.790894 &#xA;z"></path>
<path fill="#000000" opacity="1.000000" stroke="none" d="&#xA;M601.475220,402.856689 &#xA;&#x9;C584.804016,405.861176 571.734009,397.951599 568.451477,382.798553 &#xA;&#x9;C566.284607,372.795532 569.715820,364.296021 577.352112,357.744202 &#xA;&#x9;C585.607788,350.660980 595.188599,349.552612 604.945923,353.915283 &#xA;&#x9;C614.107056,358.011322 619.621948,365.377930 620.250732,375.620361 &#xA;&#x9;C621.055725,388.734131 614.639893,397.934052 601.475220,402.856689 &#xA;z"></path>
<path fill="#000000" opacity="1.000000" stroke="none" d="&#xA;M590.367432,326.252258 &#xA;&#x9;C578.149658,323.685516 569.517090,314.672333 568.717590,304.087463 &#xA;&#x9;C567.819763,292.198730 574.240479,281.667084 584.916260,277.517487 &#xA;&#x9;C595.180115,273.528015 606.997009,276.578766 613.720154,285.254211 &#xA;&#x9;C620.059082,293.433807 621.537537,302.574677 616.947998,311.937561 &#xA;&#x9;C611.708740,322.625885 602.733765,327.342072 590.367432,326.252258 &#xA;z"></path>
<path fill="#000000" opacity="1.000000" stroke="none" d="&#xA;M579.497559,550.589233 &#xA;&#x9;C570.863953,543.107178 566.850952,534.199646 570.249146,523.281860 &#xA;&#x9;C573.499268,512.840027 580.929199,506.762604 591.870056,505.173676 &#xA;&#x9;C605.255554,503.229675 618.433411,514.469299 619.788086,529.004639 &#xA;&#x9;C620.987793,541.876648 609.633240,554.781616 596.663391,555.380432 &#xA;&#x9;C590.523254,555.663879 584.709595,554.932434 579.497559,550.589233 &#xA;z"></path>
<path fill="#000000" opacity="1.000000" stroke="none" d="&#xA;M611.227783,243.241211 &#xA;&#x9;C597.880554,255.643158 576.803467,251.320969 569.926575,232.755768 &#xA;&#x9;C565.915710,221.927582 570.885437,209.608887 581.137207,203.454239 &#xA;&#x9;C590.969849,197.551239 603.849670,199.255661 611.911804,207.526749 &#xA;&#x9;C620.210510,216.040527 621.531982,228.378922 615.137695,238.256302 &#xA;&#x9;C614.057922,239.924225 612.718933,241.424316 611.227783,243.241211 &#xA;z"></path>
<path fill="#000000" opacity="1.000000" stroke="none" d="&#xA;M535.855103,434.155182 &#xA;&#x9;C521.096375,417.679657 530.134460,398.662018 543.451721,393.261261 &#xA;&#x9;C554.885254,388.624451 567.450378,392.620972 574.460632,403.240265 &#xA;&#x9;C580.609924,412.555359 578.689697,426.486328 570.182922,434.274353 &#xA;&#x9;C561.278687,442.426270 547.786255,443.139648 538.060181,435.965210 &#xA;&#x9;C537.392334,435.472626 536.764954,434.925201 535.855103,434.155182 &#xA;z"></path>
<path fill="#000000" opacity="1.000000" stroke="none" d="&#xA;M559.879639,468.673950 &#xA;&#x9;C573.339966,473.855865 579.090576,483.398987 577.193176,496.834167 &#xA;&#x9;C575.803101,506.676727 565.955811,515.552307 555.264099,516.187683 &#xA;&#x9;C545.090759,516.792358 537.077332,512.869019 532.079346,503.742615 &#xA;&#x9;C527.006958,494.480286 527.692566,485.342926 534.112488,477.124146 &#xA;&#x9;C540.532593,468.905029 549.260681,466.201202 559.879639,468.673950 &#xA;z"></path>
<path fill="#000000" opacity="1.000000" stroke="none" d="&#xA;M571.673584,324.408325 &#xA;&#x9;C578.499878,333.855072 579.181335,343.586151 573.830017,352.146973 &#xA;&#x9;C568.256287,361.063568 559.284973,365.057220 548.616577,363.370758 &#xA;&#x9;C538.942139,361.841431 531.706116,354.728271 529.242310,344.325531 &#xA;&#x9;C527.141113,335.453766 531.649597,324.830200 539.694641,319.696228 &#xA;&#x9;C548.494385,314.080780 560.077515,314.604431 568.198547,321.036682 &#xA;&#x9;C569.364441,321.960114 570.363831,323.093750 571.673584,324.408325 &#xA;z"></path>
<path fill="#000000" opacity="1.000000" stroke="none" d="&#xA;M617.341736,612.841797 &#xA;&#x9;C612.462646,623.986633 603.465942,629.961243 593.142212,629.232117 &#xA;&#x9;C582.674438,628.492798 574.276733,621.080322 571.471130,610.103333 &#xA;&#x9;C568.302673,597.706665 577.565430,583.825073 590.324524,581.848999 &#xA;&#x9;C604.100098,579.715454 617.336060,589.475891 618.278870,602.569763 &#xA;&#x9;C618.516724,605.873413 618.721008,609.237976 617.341736,612.841797 &#xA;z"></path>
<path fill="#000000" opacity="1.000000" stroke="none" d="&#xA;M529.729980,189.705658 &#xA;&#x9;C529.677612,176.837173 536.258179,167.599823 547.043579,164.927780 &#xA;&#x9;C557.932129,162.230194 568.655334,167.157745 573.850098,177.245956 &#xA;&#x9;C579.450745,188.122345 575.041077,201.906830 564.093079,207.746323 &#xA;&#x9;C552.931091,213.699966 539.210999,210.043610 533.097290,199.485672 &#xA;&#x9;C531.412903,196.576843 530.259399,193.477676 529.729980,189.705658 &#xA;z"></path>
<path fill="#000000" opacity="1.000000" stroke="none" d="&#xA;M529.963379,259.558960 &#xA;&#x9;C533.958069,239.708160 556.904663,235.055481 568.633362,246.480759 &#xA;&#x9;C576.047546,253.703156 578.365845,264.502533 573.785095,273.414185 &#xA;&#x9;C568.608704,283.484528 558.293030,288.417877 547.490723,285.989105 &#xA;&#x9;C537.449158,283.731354 530.105103,274.868286 529.712830,264.471191 &#xA;&#x9;C529.656555,262.978821 529.814880,261.478302 529.963379,259.558960 &#xA;z"></path>
<path fill="#000000" opacity="1.000000" stroke="none" d="&#xA;M518.604187,476.020386 &#xA;&#x9;C503.239777,480.392212 485.685455,466.368256 490.429657,448.217377 &#xA;&#x9;C493.093292,438.026550 502.642822,430.722839 512.831482,430.913422 &#xA;&#x9;C523.286072,431.108978 533.076660,439.107941 535.125122,449.127441 &#xA;&#x9;C537.347900,459.999847 532.008484,470.349609 521.808044,474.898010 &#xA;&#x9;C520.899902,475.303009 519.932739,475.575623 518.604187,476.020386 &#xA;z"></path>
<path fill="#000000" opacity="1.000000" stroke="none" d="&#xA;M489.866028,380.585876 &#xA;&#x9;C489.541595,368.103241 495.310150,359.646118 506.110840,356.258392 &#xA;&#x9;C515.763611,353.230713 526.375610,357.300781 532.041748,366.203796 &#xA;&#x9;C539.137451,377.353088 535.023682,391.743683 522.937256,398.052338 &#xA;&#x9;C511.657379,403.939972 496.614380,398.745392 491.767548,387.212372 &#xA;&#x9;C490.937927,385.238342 490.523682,383.089722 489.866028,380.585876 &#xA;z"></path>
<path fill="#000000" opacity="1.000000" stroke="none" d="&#xA;M561.131104,546.480591 &#xA;&#x9;C571.477417,551.323792 577.187561,560.420715 576.079651,569.828674 &#xA;&#x9;C574.893494,579.900085 567.431763,588.055603 557.237549,589.669250 &#xA;&#x9;C548.085754,591.117798 540.391113,587.897766 535.134705,580.278320 &#xA;&#x9;C529.620361,572.284973 529.542969,563.538940 534.579773,555.391357 &#xA;&#x9;C539.453613,547.507446 547.121765,544.373230 556.378235,545.446411 &#xA;&#x9;C557.852966,545.617371 559.298035,546.043091 561.131104,546.480591 &#xA;z"></path>
<path fill="#000000" opacity="1.000000" stroke="none" d="&#xA;M498.564606,285.471649 &#xA;&#x9;C508.474762,278.610016 520.006958,279.174683 527.583313,286.631287 &#xA;&#x9;C535.262207,294.188812 536.343628,304.958771 530.320618,313.893616 &#xA;&#x9;C523.506897,324.001373 509.443512,326.395844 499.550873,319.132599 &#xA;&#x9;C489.573944,311.807465 487.924896,297.917511 495.902466,288.256470 &#xA;&#x9;C496.640594,287.362549 497.492889,286.562958 498.564606,285.471649 &#xA;z"></path>
<path fill="#000000" opacity="1.000000" stroke="none" d="&#xA;M534.289795,528.173096 &#xA;&#x9;C534.441895,538.266907 530.242432,545.317505 521.361755,549.140503 &#xA;&#x9;C512.908508,552.779663 504.936829,551.234802 498.185638,545.181580 &#xA;&#x9;C491.457031,539.148682 489.649658,529.775635 492.936676,521.370300 &#xA;&#x9;C496.187531,513.057373 505.951050,506.952820 514.333679,507.991943 &#xA;&#x9;C525.250183,509.345184 532.754517,516.771423 534.289795,528.173096 &#xA;z"></path>
<path fill="#000000" opacity="1.000000" stroke="none" d="&#xA;M564.188599,623.560913 &#xA;&#x9;C571.867859,628.682190 575.997864,635.597107 574.798462,644.401794 &#xA;&#x9;C573.562866,653.471680 568.293701,659.869995 559.051636,662.360474 &#xA;&#x9;C550.769470,664.592285 541.931702,661.353027 536.675415,654.140625 &#xA;&#x9;C531.569153,647.134033 531.334229,637.409302 536.098389,630.254028 &#xA;&#x9;C541.016052,622.868225 549.675110,619.372925 558.229126,621.434143 &#xA;&#x9;C560.148804,621.896790 561.980286,622.725586 564.188599,623.560913 &#xA;z"></path>
<path fill="#000000" opacity="1.000000" stroke="none" d="&#xA;M452.340179,422.064636 &#xA;&#x9;C450.338318,410.606506 453.458862,402.975433 461.832642,398.096527 &#xA;&#x9;C469.827972,393.438080 478.773254,394.212219 485.958893,400.241669 &#xA;&#x9;C492.821289,405.999908 494.683502,413.438324 492.580688,421.844635 &#xA;&#x9;C490.566498,429.896698 482.983246,436.151367 473.973114,436.893280 &#xA;&#x9;C465.679291,437.576172 459.122711,433.991333 454.592896,426.967041 &#xA;&#x9;C453.702606,425.586578 453.179138,423.969574 452.340179,422.064636 &#xA;z"></path>
<path fill="#000000" opacity="1.000000" stroke="none" d="&#xA;M531.433228,216.924133 &#xA;&#x9;C535.649597,228.597687 531.933899,239.190948 522.166382,244.162415 &#xA;&#x9;C512.729187,248.965744 501.026947,246.006622 495.154236,237.331879 &#xA;&#x9;C488.993256,228.231339 491.039734,215.633530 499.717041,209.244080 &#xA;&#x9;C508.941803,202.451553 521.862976,204.034012 528.782166,212.837616 &#xA;&#x9;C529.702454,214.008530 530.446838,215.317688 531.433228,216.924133 &#xA;z"></path>
<path fill="#000000" opacity="1.000000" stroke="none" d="&#xA;M497.116455,136.152832 &#xA;&#x9;C509.932648,124.663757 528.455688,129.412537 532.365540,144.858871 &#xA;&#x9;C534.621399,153.770981 530.790710,163.153381 523.081421,167.598022 &#xA;&#x9;C515.161804,172.163925 504.474152,170.977844 498.074066,164.822830 &#xA;&#x9;C491.428894,158.432083 489.814697,148.791702 494.092407,140.540634 &#xA;&#x9;C494.849579,139.080154 495.932983,137.788818 497.116455,136.152832 &#xA;z"></path>
<path fill="#000000" opacity="1.000000" stroke="none" d="&#xA;M472.922577,512.090820 &#xA;&#x9;C455.603943,511.199554 447.195099,493.978912 454.935120,481.279846 &#xA;&#x9;C459.701538,473.459564 469.183502,469.574677 477.719330,471.981110 &#xA;&#x9;C486.692688,474.510895 493.145966,482.907990 493.006958,491.873749 &#xA;&#x9;C492.860107,501.350128 486.334686,509.209045 476.767578,511.411804 &#xA;&#x9;C475.635559,511.672424 474.486267,511.858185 472.922577,512.090820 &#xA;z"></path>
<path fill="#000000" opacity="1.000000" stroke="none" d="&#xA;M459.781128,324.669312 &#xA;&#x9;C469.376404,318.534576 477.992645,318.801819 485.325531,325.225128 &#xA;&#x9;C492.241150,331.282990 494.226440,340.674774 490.312653,348.817963 &#xA;&#x9;C486.781189,356.165649 479.048309,360.877686 470.825958,360.200775 &#xA;&#x9;C462.402802,359.507324 456.422913,354.902557 453.627594,347.044952 &#xA;&#x9;C450.613495,338.572235 452.726715,331.008240 459.781128,324.669312 &#xA;z"></path>
<path fill="#000000" opacity="1.000000" stroke="none" d="&#xA;M509.744141,623.593384 &#xA;&#x9;C498.900269,620.877563 492.143921,612.123230 493.251617,602.650085 &#xA;&#x9;C494.459869,592.316956 502.522614,584.833496 512.593750,584.697815 &#xA;&#x9;C523.053406,584.556885 531.364807,592.050049 532.793640,602.908936 &#xA;&#x9;C534.336731,614.636230 522.653076,625.357422 509.744141,623.593384 &#xA;z"></path>
<path fill="#000000" opacity="1.000000" stroke="none" d="&#xA;M476.159851,245.449005 &#xA;&#x9;C487.380859,249.066589 492.542511,256.712433 491.234253,267.305817 &#xA;&#x9;C490.242920,275.332977 482.216187,282.718872 473.741913,283.235748 &#xA;&#x9;C465.888611,283.714752 459.773621,280.499969 455.774780,273.787964 &#xA;&#x9;C451.634949,266.839417 451.899628,259.640198 456.571106,253.142349 &#xA;&#x9;C461.189087,246.718857 467.759735,243.987213 476.159851,245.449005 &#xA;z"></path>
<path fill="#000000" opacity="1.000000" stroke="none" d="&#xA;M449.836731,446.585022 &#xA;&#x9;C452.840424,456.650574 450.364197,464.610748 443.013580,469.407074 &#xA;&#x9;C436.517212,473.645966 427.185638,473.399506 421.411774,468.836548 &#xA;&#x9;C414.994080,463.764679 412.396851,456.215240 414.540070,448.862122 &#xA;&#x9;C416.726685,441.360199 423.511414,435.761292 431.238525,435.082275 &#xA;&#x9;C438.804443,434.417419 445.871735,438.686676 449.836731,446.585022 &#xA;z"></path>
<path fill="#000000" opacity="1.000000" stroke="none" d="&#xA;M488.343750,556.898804 &#xA;&#x9;C492.539459,564.434509 492.633057,571.546875 487.475159,578.207214 &#xA;&#x9;C482.613647,584.484802 475.902954,586.520508 468.338928,584.954895 &#xA;&#x9;C460.572784,583.347473 456.016632,578.162109 454.225861,570.495178 &#xA;&#x9;C452.582123,563.457764 455.826080,555.679688 462.177185,551.439514 &#xA;&#x9;C468.755066,547.047974 476.832153,547.075928 483.161072,551.731750 &#xA;&#x9;C485.007996,553.090393 486.483154,554.954468 488.343750,556.898804 &#xA;z"></path>
<path fill="#000000" opacity="1.000000" stroke="none" d="&#xA;M444.073303,363.795959 &#xA;&#x9;C451.078827,370.205994 452.960205,378.044128 449.579742,385.663605 &#xA;&#x9;C446.155243,393.382324 438.615875,397.374695 429.470245,396.312256 &#xA;&#x9;C422.264679,395.475189 415.826569,389.453125 414.360718,381.632782 &#xA;&#x9;C412.936981,374.037292 415.732819,367.871429 421.871246,363.311951 &#xA;&#x9;C428.370300,358.484528 435.736786,358.656311 444.073303,363.795959 &#xA;z"></path>
<path fill="#000000" opacity="1.000000" stroke="none" d="&#xA;M497.423737,669.700378 &#xA;&#x9;C502.981110,661.653442 511.136383,658.699646 519.260681,661.529175 &#xA;&#x9;C527.103394,664.260620 532.276978,671.475464 532.028625,679.334961 &#xA;&#x9;C531.767273,687.607422 525.606934,694.813660 516.755127,696.762512 &#xA;&#x9;C509.760254,698.302551 503.762024,695.840088 499.397186,690.499573 &#xA;&#x9;C494.372467,684.351685 493.347168,677.340027 497.423737,669.700378 &#xA;z"></path>
<path fill="#000000" opacity="1.000000" stroke="none" d="&#xA;M490.258179,185.387772 &#xA;&#x9;C490.982056,193.984253 487.721405,200.125229 480.566406,203.995895 &#xA;&#x9;C473.908569,207.597595 467.372284,206.823761 461.293091,202.491806 &#xA;&#x9;C455.204102,198.152954 452.631592,190.283661 454.722229,182.988647 &#xA;&#x9;C456.781097,175.804474 463.707306,170.250046 471.194031,169.779282 &#xA;&#x9;C478.211090,169.338058 485.968018,174.086609 488.867767,180.686371 &#xA;&#x9;C489.464722,182.045013 489.779083,183.527832 490.258179,185.387772 &#xA;z"></path>
<path fill="#000000" opacity="1.000000" stroke="none" d="&#xA;M430.440826,546.950073 &#xA;&#x9;C420.630249,544.274109 415.021027,537.877258 414.842712,529.563354 &#xA;&#x9;C414.687805,522.338562 419.743622,515.077698 426.723785,512.806458 &#xA;&#x9;C434.071350,510.415741 440.703247,512.077637 445.849457,517.667419 &#xA;&#x9;C450.918793,523.173767 451.807831,529.936035 448.658691,536.690125 &#xA;&#x9;C445.217102,544.071533 438.857544,547.142456 430.440826,546.950073 &#xA;z"></path>
<path fill="#000000" opacity="1.000000" stroke="none" d="&#xA;M415.803406,297.263275 &#xA;&#x9;C418.729858,289.674622 424.050598,285.457214 431.686310,285.007599 &#xA;&#x9;C438.258453,284.620575 443.673645,287.542877 447.243622,293.191833 &#xA;&#x9;C451.586578,300.063904 450.713318,308.707336 445.341675,314.384918 &#xA;&#x9;C439.859375,320.179474 430.971405,321.714417 424.302307,318.018402 &#xA;&#x9;C417.087463,314.019958 413.710815,306.030151 415.803406,297.263275 &#xA;z"></path>
<path fill="#000000" opacity="1.000000" stroke="none" d="&#xA;M456.436951,636.927185 &#xA;&#x9;C459.864777,628.120483 466.899475,623.691284 475.195709,624.794678 &#xA;&#x9;C482.656616,625.786987 488.874756,632.404114 489.863220,640.403442 &#xA;&#x9;C490.708099,647.240723 485.592133,654.990662 478.591949,657.477600 &#xA;&#x9;C471.022858,660.166687 462.854401,657.436707 458.424255,650.706360 &#xA;&#x9;C455.703278,646.572632 455.083435,642.089050 456.436951,636.927185 &#xA;z"></path>
<path fill="#000000" opacity="1.000000" stroke="none" d="&#xA;M439.722260,241.037567 &#xA;&#x9;C431.328156,243.946884 424.581970,242.400696 419.995819,236.755020 &#xA;&#x9;C415.518860,231.243683 414.897064,224.132339 418.389832,218.186081 &#xA;&#x9;C421.737274,212.487198 426.889160,209.651306 433.320709,210.132462 &#xA;&#x9;C440.513794,210.670563 445.794617,214.425262 448.192810,221.514252 &#xA;&#x9;C450.407410,228.060623 448.556519,233.593536 443.657532,238.218674 &#xA;&#x9;C442.582977,239.233200 441.273407,239.998871 439.722260,241.037567 &#xA;z"></path>
<path fill="#000000" opacity="1.000000" stroke="none" d="&#xA;M379.303925,407.581848 &#xA;&#x9;C385.055756,400.399445 391.591278,398.238312 398.814209,400.878662 &#xA;&#x9;C406.034210,403.517914 409.742249,409.444611 409.353088,417.723389 &#xA;&#x9;C408.916138,427.019287 400.857941,433.395844 390.957428,432.280090 &#xA;&#x9;C382.336731,431.308563 375.533295,422.460144 377.083130,414.038452 &#xA;&#x9;C377.469269,411.940277 378.411560,409.944427 379.303925,407.581848 &#xA;z"></path>
<path fill="#000000" opacity="1.000000" stroke="none" d="&#xA;M409.165039,491.090759 &#xA;&#x9;C408.121552,500.319214 404.028778,505.398071 396.708893,506.987091 &#xA;&#x9;C390.270935,508.384705 383.407867,505.743805 380.130737,500.377258 &#xA;&#x9;C376.612579,494.615936 376.420959,488.543976 380.052368,482.893158 &#xA;&#x9;C383.469116,477.576385 388.815186,475.124878 395.110260,476.033691 &#xA;&#x9;C401.695892,476.984497 406.488434,480.548187 408.385071,487.268036 &#xA;&#x9;C408.700623,488.386017 408.895966,489.537933 409.165039,491.090759 &#xA;z"></path>
<path fill="#000000" opacity="1.000000" stroke="none" d="&#xA;M403.904266,329.046936 &#xA;&#x9;C410.721252,337.086395 410.464600,346.478668 403.543854,352.392120 &#xA;&#x9;C396.802155,358.152588 386.869568,357.399872 381.167389,350.696503 &#xA;&#x9;C376.165222,344.816010 376.489197,335.438354 381.893555,329.675323 &#xA;&#x9;C387.469269,323.729553 395.883698,323.387543 403.904266,329.046936 &#xA;z"></path>
<path fill="#000000" opacity="1.000000" stroke="none" d="&#xA;M421.231873,614.704468 &#xA;&#x9;C415.933044,606.974854 415.779602,600.587585 420.511414,594.724182 &#xA;&#x9;C424.886688,589.302673 432.202454,587.191711 438.467682,589.734558 &#xA;&#x9;C444.752625,592.285522 448.236084,597.010986 448.600037,603.837219 &#xA;&#x9;C448.926056,609.951294 445.433685,615.794189 439.764862,618.241943 &#xA;&#x9;C433.034851,621.148010 426.802490,620.394043 421.231873,614.704468 &#xA;z"></path>
<path fill="#000000" opacity="1.000000" stroke="none" d="&#xA;M402.231445,276.460846 &#xA;&#x9;C392.552002,283.438019 378.252045,277.431091 378.506500,264.364014 &#xA;&#x9;C378.643585,257.324097 382.755615,252.174240 389.664429,250.296036 &#xA;&#x9;C395.626770,248.675110 402.411316,251.317276 405.720947,256.549103 &#xA;&#x9;C409.423309,262.401733 408.903137,269.324036 404.343445,274.518738 &#xA;&#x9;C403.799438,275.138519 403.138031,275.655304 402.231445,276.460846 &#xA;z"></path>
<path fill="#000000" opacity="1.000000" stroke="none" d="&#xA;M407.115173,571.717163 &#xA;&#x9;C402.962402,579.864929 395.927368,583.089722 388.599304,580.529236 &#xA;&#x9;C381.977753,578.215637 377.778503,571.171692 378.989349,564.409485 &#xA;&#x9;C380.469940,556.140625 387.844696,551.203125 396.326324,552.802002 &#xA;&#x9;C404.835876,554.406250 409.285278,561.971069 407.115173,571.717163 &#xA;z"></path>
<path fill="#000000" opacity="1.000000" stroke="none" d="&#xA;M339.847412,454.777252 &#xA;&#x9;C340.791351,444.963196 347.011200,439.116791 355.387299,439.723145 &#xA;&#x9;C363.132233,440.283783 368.596924,446.594849 368.314026,454.651917 &#xA;&#x9;C368.071228,461.565430 363.354401,466.945618 356.499725,468.127747 &#xA;&#x9;C350.327698,469.192108 343.577942,465.439728 341.131775,459.493744 &#xA;&#x9;C340.566895,458.120575 340.291962,456.628082 339.847412,454.777252 &#xA;z"></path>
<path fill="#000000" opacity="1.000000" stroke="none" d="&#xA;M357.161072,392.386597 &#xA;&#x9;C348.297913,393.518036 341.610962,388.735626 340.054016,380.490021 &#xA;&#x9;C338.834869,374.033264 343.782196,366.684296 350.516235,364.948914 &#xA;&#x9;C358.080566,362.999573 365.584503,367.196075 367.833160,374.633301 &#xA;&#x9;C370.158844,382.325409 366.101013,389.307373 357.161072,392.386597 &#xA;z"></path>
<path fill="#000000" opacity="1.000000" stroke="none" d="&#xA;M359.543274,315.000580 &#xA;&#x9;C351.191559,317.580109 344.419128,314.565491 341.751678,307.401520 &#xA;&#x9;C339.324615,300.883148 342.368134,293.782562 348.829132,290.889832 &#xA;&#x9;C355.209259,288.033325 362.577942,290.532349 365.926086,296.688141 &#xA;&#x9;C369.493286,303.246643 367.161499,310.285706 359.543274,315.000580 &#xA;z"></path>
<path fill="#000000" opacity="1.000000" stroke="none" d="&#xA;M354.041687,515.901550 &#xA;&#x9;C364.581268,517.895813 369.570374,524.991699 366.861786,533.553772 &#xA;&#x9;C365.117462,539.067688 360.440155,542.370789 354.378021,542.369751 &#xA;&#x9;C348.399445,542.368713 343.470428,538.759155 341.659027,533.055542 &#xA;&#x9;C339.991669,527.805542 342.116882,521.744812 346.730835,518.598816 &#xA;&#x9;C348.825623,517.170471 351.131470,516.281189 354.041687,515.901550 &#xA;z"></path>
<path fill="#000000" opacity="1.000000" stroke="none" d="&#xA;M311.297424,428.056763 &#xA;&#x9;C301.495422,422.355743 300.296692,412.306641 308.369598,406.406097 &#xA;&#x9;C313.140961,402.918579 319.041718,403.091675 323.538422,406.851074 &#xA;&#x9;C327.919159,410.513519 329.250122,416.739105 326.712219,421.696716 &#xA;&#x9;C323.812012,427.362091 318.285248,429.747406 311.297424,428.056763 &#xA;z"></path>
<path fill="#000000" opacity="1.000000" stroke="none" d="&#xA;M319.964844,502.487427 &#xA;&#x9;C312.762451,504.043854 307.921295,502.110962 305.183044,496.889587 &#xA;&#x9;C302.721588,492.196014 303.567078,486.881439 307.370392,483.140411 &#xA;&#x9;C311.081543,479.490051 316.536285,478.626465 321.185608,481.156372 &#xA;&#x9;C324.932129,483.195038 327.130096,486.338593 327.345581,490.742004 &#xA;&#x9;C327.612854,496.204315 325.067444,499.916412 319.964844,502.487427 &#xA;z"></path>
<path fill="#000000" opacity="1.000000" stroke="none" d="&#xA;M310.704651,351.589844 &#xA;&#x9;C305.722595,348.812042 303.150848,344.954041 303.896088,339.546570 &#xA;&#x9;C304.568542,334.667328 307.563568,331.387390 312.223755,329.903198 &#xA;&#x9;C316.960907,328.394440 321.100830,329.730804 324.443481,333.348755 &#xA;&#x9;C327.821533,337.005035 328.316711,342.610321 325.753784,346.769287 &#xA;&#x9;C322.557800,351.955536 317.819977,353.564575 310.704651,351.589844 &#xA;z"></path>
<path fill="#000000" opacity="1.000000" stroke="none" d="&#xA;M281.607697,387.973267 &#xA;&#x9;C274.818512,390.061157 269.238586,387.761322 267.272675,382.386993 &#xA;&#x9;C265.341003,377.106232 267.913239,371.204468 273.032623,369.171204 &#xA;&#x9;C278.287903,367.084045 284.038147,369.398834 286.422333,374.561218 &#xA;&#x9;C288.718781,379.533783 287.218048,383.991608 281.607697,387.973267 &#xA;z"></path>
<path fill="#000000" opacity="1.000000" stroke="none" d="&#xA;M268.595215,447.848633 &#xA;&#x9;C273.444000,443.423157 277.680267,442.569977 281.919525,444.884430 &#xA;&#x9;C286.491516,447.380463 288.577667,452.963501 286.723175,457.739868 &#xA;&#x9;C284.779938,462.744751 279.313416,465.402435 274.047485,463.902435 &#xA;&#x9;C268.972687,462.456909 265.929718,457.707764 266.825256,452.347351 &#xA;&#x9;C267.065216,450.911072 267.837616,449.563782 268.595215,447.848633 &#xA;z"></path>
<path fill="#000000" opacity="1.000000" stroke="none" d="&#xA;M243.461395,423.730286 &#xA;&#x9;C237.548584,426.130096 233.736328,425.369354 231.253006,421.408356 &#xA;&#x9;C228.847412,417.571320 228.977036,413.712128 232.182434,410.441711 &#xA;&#x9;C235.348892,407.211121 239.214355,406.783508 243.139938,409.066315 &#xA;&#x9;C248.267365,412.048065 248.495499,418.231049 243.461395,423.730286 &#xA;z"></path>
</svg>