<?xml version="1.0" encoding="utf-8"?>
<!-- Generator: Adobe Illustrator 19.2.1, SVG Export Plug-In . SVG Version: 6.00 Build 0)  -->
<svg version="1.1" id="layer" xmlns="http://www.w3.org/2000/svg" xmlns:xlink="http://www.w3.org/1999/xlink" x="0px" y="0px"
	 viewBox="0 0 652 652" style="enable-background:new 0 0 652 652;" xml:space="preserve">
<style type="text/css">
	.st0{fill:#005699;}
</style>
<g>
	<g>
		<g>
			<path class="st0" d="M380.3,306.2l-26.5,35.3H370l4.8-6.3h29.4l5,6.3h16l-26.5-35.3H380.3z M380.3,327.4l9.2-12.8l9.2,12.8H380.3
				z"/>
			<path class="st0" d="M354,327.7h-14.7c-0.2,1.5-0.2,2.7-0.8,3.4s-2.1,1.1-3.2,1.3c-6.1,0.6-13.2,0.2-20,0.4
				c-1.7,0-3.6-0.4-4.8-0.6c-1.5-0.4-2.5-1.7-2.9-2.7c-0.8-2.5-0.6-8.2,0-10.9c1.1-2.1,3.6-3.2,6.3-3.4h20c2.5,0.2,2.5,0.2,3.2,0.8
				c0.6,0.6,1.7,1.5,1.5,3.8c5.5,0,10.3-0.2,14.7-0.2c0.8-7.4-1.9-10.1-5.3-11.6c-2.3-1.1-4.8-1.7-8-1.7c-2.1-0.4-23.7-0.4-35.1-0.2
				c-5.7,0.8-10.9,2.9-12.8,7.4c-0.8,5.9-1.1,15.1,0.2,20.8c1.1,1.9,2.3,3.8,4.4,4.8c2.9,2.1,7.6,2.3,7.6,2.3h39.7
				c5.7,0,9-3.2,9.9-7.1C354.2,332.3,354,330,354,327.7z"/>
			<path class="st0" d="M141,299.9v-56.3c-1.3-1.7-2.9-2.7-4.2-4.2h-20.4l-4,3.4l-3.8-3.2H88l-3.8,3.6v25.2l-1.7-1.7H68.9l-2.3,2.1
				v25h-8.4l-4,7.4c0,1.3,0.2,2.7-0.2,3.8H26.9v37.8h26.5c0.2,0,0.6,0.4,0.6,0.6v2.9c1.5,2.5,2.5,5.3,4,7.8h8.4
				c0,8.4-0.2,16.6,0,24.2c1.1,1.3,1.9,2.3,2.7,3.2h13l1.9-1.9v24.8c1.5,1.7,2.7,2.7,4,4.2h20.8c1.3-1.1,2.3-2.3,3.8-3.6
				c1.3,1.3,2.3,2.5,3.8,3.6H137c1.3-1.5,2.7-2.7,4.2-4.4v-56.3h5.3c1.5-1.9,2.7-4,4.2-6.1V306c-1.7-2.3-2.7-4.4-4.2-6.3L141,299.9
				L141,299.9z M53.6,326.2H30.7v-2.9h22.7v2.9H53.6z M53.8,318.6H30.9v-9.9h22.9V318.6L53.8,318.6z M66,317.1h-7.6v-2.9H66V317.1z
				 M66,308.7h-8v-6.5l1.7-4h6.1L66,308.7L66,308.7z M70.6,272l1.1-1.3h8l1.7,1.7v14.3H70.8L70.6,272L70.6,272z M81.1,294.5H70.8v-4
				h10.3V294.5z M108.8,267.6H88.5v-4h20.4V267.6z M108.8,259.4H88.5v-13.2l2.3-2.3h15.3l2.7,2.5V259.4z M136.8,267.6h-20.2v-4h20.2
				V267.6z M136.8,259.4h-20.4v-13l2.1-2.1c0,0,0.2-0.4,0.6-0.4H134l2.7,2.5L136.8,259.4L136.8,259.4z M147.1,320.9H141V318h6.1
				V320.9z M147.3,313.6H141v-10.1h3.8l2.5,3.4V313.6z"/>
			<path class="st0" d="M204.8,331.2c-9-8.4-18.3-16.8-27.1-25.2h-22.7v35.3h14.7v-25.6l27.9,25.8h22.7v-35.3h-15.5V331.2z"/>
			<path class="st0" d="M286.1,326.2c-0.8-2.7-2.9-4.2-5.5-5.3c-3.2-1.3-7.6-1.1-11.3-1.7h-23.1c-1.5,0-2.5-0.2-3.8-0.6
				c-0.8-0.4-1.3-1.3-1.3-1.9c-0.2-1.3,1.1-2.3,2.1-2.5c6.9-0.6,15.1-0.2,22.5-0.2c1.3,0,2.3,0.2,3.2,0.8c0.8,0.6,0.8,1.7,1.3,2.5
				h14.3c1.1-4.8-0.8-8-3.4-9.5c-1.9-1.1-6.5-2.1-7.4-2.1c-0.6,0-24.2-0.4-35.9,0c-5.7,1.1-11.3,2.3-11.8,8.6c0,0,0,3.8,0,4.6
				s0.4,2.5,0.8,3.4c0.6,1.3,1.7,2.1,2.7,2.7c1.9,1.3,4.6,1.5,7.1,1.9c10.1,1.1,21.8,0.2,31.9,1.3c1.3,0.2,2.3,0.6,2.5,1.9
				c0.4,1.5-0.6,2.5-1.7,2.9c0,0-1.5,0.6-2.9,0.6c-1.5,0-21.6,0-21.6,0c-2.1,0-3.6-1.1-4-4.2h-14.9v4.8c0,0,0.4,1.3,0.8,2.1
				c1.3,2.7,4.4,4.2,8.6,4.8h40.5c6.3,0,9.5-2.9,10.5-7.1C286.4,331.9,286.8,328.5,286.1,326.2z"/>
		</g>
		<g>
			<path class="st0" d="M155.7,351.6h5.5l8.8,11.1v-11.1h5.9v21.2h-5l-9.2-11.6v11.6h-5.9L155.7,351.6L155.7,351.6z"/>
			<path class="st0" d="M187,351.4h5.7l9,21.4h-6.3l-1.5-3.8h-8.2l-1.5,3.8H178L187,351.4z M192,364.4l-2.3-5.9l-2.3,5.9H192z"/>
			<path class="st0" d="M206.5,356.6h-6.3v-5.3h18.5v5.3h-6.3v16h-5.9V356.6L206.5,356.6z"/>
			<path class="st0" d="M221.9,351.6h5.9v21.2h-5.9V351.6z"/>
			<path class="st0" d="M231.1,362.3L231.1,362.3c0-6.1,4.8-11.1,11.6-11.1c6.5,0,11.3,4.8,11.3,10.9v0.2c0,6.1-4.8,11.1-11.6,11.1
				S231.1,368.4,231.1,362.3z M247.9,362.3L247.9,362.3c0-3.2-2.1-5.7-5.5-5.7s-5.5,2.5-5.5,5.7v0.2c0,2.9,2.1,5.7,5.5,5.7
				C245.8,368,247.9,365.3,247.9,362.3z"/>
			<path class="st0" d="M257.2,351.6h5.5l8.8,11.1v-11.1h5.9v21.2h-5.3l-9-11.6v11.6h-5.9L257.2,351.6L257.2,351.6z"/>
			<path class="st0" d="M288.7,351.4h5.7l9,21.4h-6.1l-1.5-3.8h-8.2l-1.5,3.8h-6.1L288.7,351.4z M293.7,364.4l-2.3-5.9l-2.3,5.9
				H293.7z"/>
			<path class="st0" d="M305.7,351.6h5.9v16h10.3v5.3h-16.2V351.6z"/>
			<path class="st0" d="M331.7,369.7l3.2-4c2.1,1.7,4.4,2.5,6.7,2.5c1.7,0,2.5-0.6,2.5-1.5v-0.2c0-0.8-0.6-1.5-3.6-2.1
				c-4.6-1.1-8-2.3-8-6.5v-0.2c0-4,3.2-6.7,8.2-6.7c3.6,0,6.3,1.1,8.8,2.7l-2.9,4.2c-1.9-1.5-4-2.1-5.9-2.1c-1.5,0-2.1,0.6-2.1,1.5
				v0.2c0,1.1,0.8,1.5,3.8,2.1c4.8,1.1,8,2.5,8,6.5v0.2c0,4.4-3.4,6.9-8.6,6.9C337.8,373,334.5,372,331.7,369.7z"/>
			<path class="st0" d="M358,356.6h-6.3v-5.3h18.5v5.3h-6.3v16H358V356.6L358,356.6z"/>
			<path class="st0" d="M373.1,351.6h10.1c3.2,0,5.5,0.8,6.9,2.3c1.3,1.3,1.9,2.7,1.9,5v0.2c0,3.2-1.7,5.5-4.4,6.5l5,7.4h-6.7
				l-4.2-6.3h-2.5v6.3h-5.9L373.1,351.6L373.1,351.6z M382.8,361.7c1.9,0,3.2-1.1,3.2-2.5l0,0c0-1.7-1.3-2.5-3.2-2.5h-4v5H382.8
				L382.8,361.7z"/>
			<path class="st0" d="M395.2,351.6h17v5h-11.3v3.2h10.1v4.6h-10.1v3.4h11.3v5H395L395.2,351.6L395.2,351.6z"/>
			<path class="st0" d="M415.6,351.6h5.5l8.8,11.1v-11.1h5.9v21.2h-5l-9-11.6v11.6h-5.9L415.6,351.6L415.6,351.6z"/>
			<path class="st0" d="M439.1,362.3L439.1,362.3c0-6.3,4.8-11.1,11.3-11.1c3.8,0,6.3,1.1,8.6,2.9l-3.4,4.2c-1.5-1.3-2.9-1.9-5-1.9
				c-2.9,0-5.5,2.5-5.5,5.7v0.2c0,3.4,2.3,5.9,5.7,5.9c1.5,0,2.5-0.4,3.4-0.8v-2.5H450v-4.4h9.7v9.5c-2.3,1.9-5.3,3.2-9.2,3.2
				C443.9,373.2,439.1,368.6,439.1,362.3z"/>
			<path class="st0" d="M468.1,356.6h-6.3v-5.3h18.5v5.3H474v16h-5.9V356.6z"/>
			<path class="st0" d="M483.4,351.6h5.9v8h7.6v-8h5.9v21.2h-5.9v-8h-7.6v8h-5.9V351.6z"/>
			<path class="st0" d="M522.7,351.4h5.7l9,21.4h-6.3l-1.5-3.8h-8.2l-1.5,3.8h-6.1L522.7,351.4z M528,364.4l-2.3-5.9l-2.3,5.9H528z"
				/>
			<path class="st0" d="M539.7,351.6h5.5l8.8,11.1v-11.1h5.9v21.2h-5l-9-11.6v11.6h-5.9L539.7,351.6L539.7,351.6z"/>
			<path class="st0" d="M563.9,351.6h8.2c7.6,0,12,4.4,12,10.5v0.2c0,6.1-4.4,10.7-12,10.7h-8.2V351.6z M569.8,356.6v10.9h2.3
				c3.6,0,5.9-1.9,5.9-5.3v-0.2c0-3.4-2.3-5.5-5.9-5.5C572.1,356.6,569.8,356.6,569.8,356.6z"/>
		</g>
		<g>
			<path class="st0" d="M154.8,398.4L154.8,398.4c0-6.3,4.8-11.1,11.1-11.1c4.4,0,7.1,1.9,9,4.4l-4.4,3.4c-1.3-1.5-2.5-2.5-4.6-2.5
				c-2.9,0-5,2.5-5,5.7v0.2c0,3.2,2.1,5.7,5,5.7c2.1,0,3.4-1.1,4.8-2.5l4.4,3.2c-2.1,2.7-4.8,4.8-9.5,4.8
				C159.7,409.4,154.8,404.8,154.8,398.4z"/>
			<path class="st0" d="M176.7,398.4L176.7,398.4c0-6.1,4.8-11.1,11.6-11.1s11.3,4.8,11.3,10.9v0.2c0,6.1-4.8,11.1-11.6,11.1
				C181.5,409.6,176.7,404.5,176.7,398.4z M193.5,398.4L193.5,398.4c0-3.2-2.1-5.7-5.5-5.7c-3.2,0-5.5,2.5-5.5,5.7v0.2
				c0,2.9,2.1,5.7,5.5,5.7C191.4,404.1,193.5,401.6,193.5,398.4z"/>
			<path class="st0" d="M202.7,387.9h5.5l8.8,11.1v-11.1h5.9v21.2h-5l-9-11.6v11.6H203v-21.2H202.7z"/>
			<path class="st0" d="M226.9,387.9h8.2c7.6,0,12,4.4,12,10.5v0.2c0,6.1-4.4,10.7-12,10.7h-8.2V387.9z M232.8,393v10.9h2.3
				c3.6,0,5.9-1.9,5.9-5.3v-0.2c0-3.4-2.3-5.5-5.9-5.5H232.8z"/>
			<path class="st0" d="M250.6,387.9h5.9v21.2h-5.9V387.9z"/>
			<path class="st0" d="M265.8,393h-6.3v-5.3H278v5.3h-6.3v16h-5.9V393L265.8,393z"/>
			<path class="st0" d="M281.1,387.9h5.9v21.2h-5.9V387.9z"/>
			<path class="st0" d="M290.3,398.4L290.3,398.4c0-6.1,4.8-11.1,11.6-11.1c6.5,0,11.3,4.8,11.3,10.9v0.2c0,6.1-4.8,11.1-11.6,11.1
				C295.2,409.6,290.3,404.5,290.3,398.4z M307.2,398.4L307.2,398.4c0-3.2-2.1-5.7-5.5-5.7c-3.2,0-5.5,2.5-5.5,5.7v0.2
				c0,2.9,2.1,5.7,5.5,5.7C305.1,404.1,307.2,401.6,307.2,398.4z"/>
			<path class="st0" d="M316.6,387.9h5.5l8.8,11.1v-11.1h5.9v21.2h-5l-9-11.6v11.6h-6.1V387.9z"/>
			<path class="st0" d="M340.8,387.9h5.9v21.2h-5.9V387.9z"/>
			<path class="st0" d="M350.8,387.9h5.5l8.8,11.1v-11.1h5.9v21.2h-5l-9.2-11.8V409h-5.9L350.8,387.9L350.8,387.9z"/>
			<path class="st0" d="M374.4,398.4L374.4,398.4c0-6.3,4.8-11.1,11.3-11.1c3.8,0,6.3,1.1,8.6,2.9l-3.4,4.2c-1.5-1.3-2.9-1.9-5-1.9
				c-2.9,0-5.5,2.5-5.5,5.7v0.2c0,3.4,2.3,5.9,5.7,5.9c1.5,0,2.5-0.4,3.4-0.8v-2.3h-4.2v-4.4h9.7v9.5c-2.3,1.9-5.3,3.2-9.2,3.2
				C379.2,409.4,374.4,405,374.4,398.4z"/>
			<path class="st0" d="M414.5,387.7h5.7l9,21.4h-6.3l-1.5-3.8h-8.2l-1.5,3.8h-6.1L414.5,387.7z M419.8,400.8l-2.3-5.9l-2.3,5.9
				H419.8z"/>
			<path class="st0" d="M429.6,405.8l3.2-4c2.1,1.7,4.4,2.5,6.7,2.5c1.7,0,2.5-0.6,2.5-1.5v-0.2c0-0.8-0.6-1.5-3.6-2.1
				c-4.6-1.1-8-2.3-8-6.5v-0.2c0-4,3.2-6.7,8.2-6.7c3.6,0,6.3,1.1,8.8,2.7l-2.9,4.2c-1.9-1.5-4-2.1-5.9-2.1c-1.5,0-2.1,0.6-2.1,1.5
				v0.2c0,1.1,0.8,1.5,3.8,2.1c4.8,1.1,8,2.5,8,6.5v0.2c0,4.4-3.4,6.9-8.6,6.9C435.9,409.4,432.4,408.3,429.6,405.8z"/>
			<path class="st0" d="M449.4,405.8l3.2-4c2.1,1.7,4.4,2.5,6.7,2.5c1.7,0,2.5-0.6,2.5-1.5v-0.2c0-0.8-0.6-1.5-3.6-2.1
				c-4.6-1.1-8-2.3-8-6.5v-0.2c0-4,3.2-6.7,8.2-6.7c3.6,0,6.3,1.1,8.8,2.7l-2.9,4.2c-1.9-1.5-4-2.1-5.9-2.1c-1.5,0-2.1,0.6-2.1,1.5
				v0.2c0,1.1,0.8,1.5,3.8,2.1c4.8,1.1,8,2.5,8,6.5v0.2c0,4.4-3.4,6.9-8.6,6.9C455.7,409.4,452.1,408.3,449.4,405.8z"/>
			<path class="st0" d="M470.4,398.4L470.4,398.4c0-6.1,4.8-11.1,11.6-11.1c6.5,0,11.3,4.8,11.3,10.9v0.2c0,6.1-4.8,11.1-11.6,11.1
				C475.2,409.4,470.4,404.5,470.4,398.4z M487.2,398.4L487.2,398.4c0-3.2-2.1-5.7-5.5-5.7c-3.2,0-5.5,2.5-5.5,5.7v0.2
				c0,2.9,2.1,5.7,5.5,5.7C485.1,404.1,487.2,401.6,487.2,398.4z"/>
			<path class="st0" d="M495.8,398.4L495.8,398.4c0-6.3,4.8-11.1,11.1-11.1c4.4,0,7.1,1.9,9,4.4l-4.4,3.4c-1.3-1.5-2.5-2.5-4.6-2.5
				c-2.9,0-5,2.5-5,5.7v0.2c0,3.2,2.1,5.7,5,5.7c2.1,0,3.4-1.1,4.8-2.5l4.4,3.2c-1.9,2.7-4.6,4.8-9.2,4.8
				C500.6,409.4,495.8,404.8,495.8,398.4z"/>
			<path class="st0" d="M519.1,387.9h5.9v21.2h-5.9V387.9z"/>
			<path class="st0" d="M536.6,387.7h5.7l9,21.4H545l-1.5-3.8h-8.4l-1.5,3.8h-6.1L536.6,387.7z M541.6,400.8l-2.3-5.9l-2.3,5.9
				H541.6z"/>
			<path class="st0" d="M556.1,393h-6.3v-5.3h18.5v5.3H562v16h-5.9V393L556.1,393z"/>
			<path class="st0" d="M571.2,387.9h5.9v21.2h-5.9V387.9z"/>
			<path class="st0" d="M580.7,398.4L580.7,398.4c0-6.1,4.8-11.1,11.6-11.1c6.5,0,11.3,4.8,11.3,10.9v0.2c0,6.1-4.8,11.1-11.6,11.1
				C585.5,409.4,580.7,404.5,580.7,398.4z M597.5,398.4L597.5,398.4c0-3.2-2.1-5.7-5.5-5.7c-3.2,0-5.5,2.5-5.5,5.7v0.2
				c0,2.9,2.1,5.7,5.5,5.7C595.2,404.1,597.5,401.6,597.5,398.4z"/>
			<path class="st0" d="M606.7,387.9h5.5l8.8,11.1v-11.1h5.9v21.2h-5l-9-11.6v11.6h-5.9v-21.2H606.7z"/>
		</g>
	</g>
	<g>
		<path class="st0" d="M412,315.3L412,315.3c0-5.3,4.2-9.5,9.5-9.5c5.3,0,9.5,4.2,9.5,9.5l0,0c0,5.3-4.2,9.5-9.5,9.5
			C416.2,324.7,412,320.5,412,315.3z M429.8,315.3L429.8,315.3c0-4.6-3.6-8.4-8.4-8.4s-8.4,3.8-8.4,8.4l0,0c0,4.6,3.6,8.4,8.4,8.4
			S429.8,319.9,429.8,315.3z M417.7,310h4.4c1.5,0,2.3,0.4,3.2,1.1c0.6,0.6,0.8,1.3,0.8,2.1l0,0c0,1.7-0.8,2.5-2.1,3.2l2.5,3.6h-2.7
			l-2.1-3.2H420v3.2h-2.3L417.7,310L417.7,310z M422.1,314.8c1.1,0,1.7-0.6,1.7-1.5l0,0c0-1.1-0.6-1.5-1.7-1.5H420v2.9H422.1
			L422.1,314.8z"/>
	</g>
</g>
</svg>
